<svg xmlns="http://www.w3.org/2000/svg" width="13" height="18" viewBox="0 0 13 18">
  <g id="_173-bin" data-name="173-bin" transform="translate(-1)">
    <path id="Path_19" data-name="Path 19" d="M2,5V15a1,1,0,0,0,1,1h9a1,1,0,0,0,1-1V5Zm3,9H4V7H5Zm2,0H6V7H7Zm2,0H8V7H9Zm2,0H10V7h1Z" transform="translate(0 2)" fill="#4c74f8"/>
    <path id="Path_20" data-name="Path 20" d="M13.25,2H10V.75A.753.753,0,0,0,9.25,0H5.75A.753.753,0,0,0,5,.75V2H1.75A.752.752,0,0,0,1,2.75V4H14V2.75A.752.752,0,0,0,13.25,2ZM9,2H6V1.013H9Z" fill="#4c74f8"/>
  </g>
</svg>
