<svg xmlns="http://www.w3.org/2000/svg" width="18.97" height="23.347" viewBox="0 0 18.97 23.347">
  <g id="_173-bin" data-name="173-bin" transform="translate(-1)">
    <path id="Path_11" data-name="Path 11" d="M2,5V19.592a1.463,1.463,0,0,0,1.459,1.459H16.592a1.463,1.463,0,0,0,1.459-1.459V5ZM6.378,18.133H4.918V7.918H6.378Zm2.918,0H7.837V7.918H9.3Zm2.918,0H10.755V7.918h1.459Zm2.918,0H13.674V7.918h1.459Z" transform="translate(0.459 2.296)" fill="#fff"/>
    <path id="Path_12" data-name="Path 12" d="M18.875,2.918H14.133V1.094A1.1,1.1,0,0,0,13.038,0H7.931A1.1,1.1,0,0,0,6.837,1.094V2.918H2.094A1.1,1.1,0,0,0,1,4.013V5.837H19.97V4.013A1.1,1.1,0,0,0,18.875,2.918Zm-6.2,0H8.3V1.478h4.378Z" transform="translate(0)" fill="#fff"/>
  </g>
</svg>
