<svg xmlns="http://www.w3.org/2000/svg" width="10.5" height="12" viewBox="0 0 10.5 12">
  <g id="_039-file-text2" data-name="039-file-text2" transform="translate(-1)">
    <path id="Path_5" data-name="Path 5" d="M11.006,2.684A10.644,10.644,0,0,0,9.984,1.516,10.644,10.644,0,0,0,8.816.494,1.868,1.868,0,0,0,7.75,0H1.938A.939.939,0,0,0,1,.938V11.063A.939.939,0,0,0,1.938,12h8.625a.939.939,0,0,0,.938-.937V3.75A1.868,1.868,0,0,0,11.006,2.684ZM9.453,2.047A10.246,10.246,0,0,1,10.3,3H8.5V1.2a10.15,10.15,0,0,1,.953.851Zm1.3,9.016a.19.19,0,0,1-.187.188H1.938a.19.19,0,0,1-.187-.187V.938A.191.191,0,0,1,1.938.75H7.75V3.375a.375.375,0,0,0,.375.375H10.75Z" fill="#a4a6b1"/>
    <path id="Path_6" data-name="Path 6" d="M9.625,12.75H4.375a.375.375,0,0,1,0-.75h5.25a.375.375,0,0,1,0,.75Z" transform="translate(-0.75 -3)" fill="#a4a6b1"/>
    <path id="Path_7" data-name="Path 7" d="M9.625,10.75H4.375a.375.375,0,0,1,0-.75h5.25a.375.375,0,0,1,0,.75Z" transform="translate(-0.75 -2.5)" fill="#a4a6b1"/>
    <path id="Path_8" data-name="Path 8" d="M9.625,8.75H4.375a.375.375,0,0,1,0-.75h5.25a.375.375,0,0,1,0,.75Z" transform="translate(-0.75 -2)" fill="#a4a6b1"/>
  </g>
</svg>
